<svg width="93" height="81" fill="none" xmlns="http://www.w3.org/2000/svg"><path d="M38.547 57.86c-.469 3-1.219 5.859-2.25 8.578-1.031 2.624-2.297 4.968-3.797 7.03-1.5 2.063-3.14 3.704-4.922 4.923-1.687 1.125-3.422 1.687-5.203 1.687-3.375 0-6.844-.516-10.406-1.547C8.5 77.5 5.78 75.766 3.813 73.328a27.576 27.576 0 01-1.688-2.953c-.563-1.125-.984-2.484-1.266-4.078C.58 64.703.391 62.78.297 60.53c0-2.25.234-4.875.703-7.875A78.062 78.062 0 013.672 40.14c1.219-4.032 3.094-8.157 5.625-12.375 2.625-4.22 6.047-8.532 10.265-12.938C23.875 10.328 29.36 5.5 36.017.344l7.312 10.265c-8.25 6.188-14.156 11.672-17.719 16.453-3.468 4.688-5.437 8.813-5.906 12.375-.187 1.688.328 3 1.547 3.938 1.219.938 2.813 1.688 4.781 2.25 4.125 1.031 7.313 2.672 9.563 4.922 2.343 2.156 3.328 4.594 2.953 7.312zm49.219 0c-.47 3-1.22 5.859-2.25 8.578-1.032 2.624-2.297 4.968-3.797 7.03-1.5 2.063-3.14 3.704-4.922 4.923-1.688 1.125-3.422 1.687-5.203 1.687-3.375 0-6.844-.516-10.406-1.547-3.47-1.031-6.188-2.765-8.157-5.203a27.576 27.576 0 01-1.687-2.953c-.563-1.125-.985-2.484-1.266-4.078-.281-1.594-.469-3.516-.562-5.766 0-2.25.234-4.875.703-7.875a78.058 78.058 0 012.672-12.515c1.218-4.032 3.093-8.157 5.625-12.375 2.625-4.22 6.047-8.532 10.265-12.938 4.313-4.5 9.797-9.328 16.453-14.484l7.313 10.265c-8.25 6.188-14.156 11.672-17.719 16.453-3.469 4.688-5.437 8.813-5.906 12.375-.188 1.688.328 3 1.547 3.938 1.219.938 2.812 1.688 4.781 2.25 4.125 1.031 7.313 2.672 9.563 4.922 2.343 2.156 3.328 4.594 2.953 7.312z" fill="#F61067"/></svg>