<svg width="166" height="39" fill="none" xmlns="http://www.w3.org/2000/svg"><path d="M50.7 15.576c1.899 0 3.438-1.471 3.438-3.285 0-1.815-1.54-3.285-3.438-3.285-1.9 0-3.44 1.47-3.44 3.285 0 1.814 1.54 3.285 3.44 3.285zm113.485 11.223c-.523-.351-.927-.41-1.262.273-5.776 11.946-15.508 5.985-14.542 6.51 2.159-.944 7.837-5.292 6.979-11.297-.521-3.67-3.819-5.298-7.32-4.715-6.11 1.018-8.358 7.312-7.214 12.885.2.957.558 1.746.916 2.52-6.905 5.362-9.648-4.802-9.959-6.016-.012-.065 5.332-4.32 6.818-14.456 1.558-10.625-1.991-12.56-5.62-12.499-6.715.112-8.529 13.511-6.092 24.679-.204.05-1.154.553-2.681.61-1.098-3.302-5.793-6.196-7.022-5.08-3.075 2.789.746 8.243 3.434 8.67-1.615 9.5-11.714 7.148-9.834-4.754 3.289-5.833 5.79-14.506 5.344-19.742-.158-1.853-1.593-4.337-4.839-4.214-6.242.236-6.921 13.64-6.189 23.152-.036-.234-.384 1.156-2.942 1.847-.605-3.207-6.013-6.427-7.286-4.88-2.383 2.898 1.747 8.063 3.703 8.424-1.615 9.5-11.714 7.146-9.834-4.755 3.289-5.833 5.79-14.506 5.344-19.742-.159-1.854-1.594-4.337-4.84-4.215-6.242.237-6.92 13.64-6.189 23.153-.036-.238-.392 1.198-3.054 1.877-.09-4.161-5.517-6.07-6.82-4.742-2.325 2.367.532 7.224 3.174 8.424-1.615 9.5-11.715 7.146-9.835-4.755 3.289-5.833 5.79-14.506 5.344-19.742-.158-1.854-1.593-4.337-4.839-4.215-6.242.237-6.744 14.314-6.013 23.826-2.056 8.413-8.95 18.92-8.055-2.127.089-1.476.185-2.037-.586-2.59-.577-.43-1.89-.222-2.608-.205-.873.033-1.091.52-1.284 1.258-.45 1.902-.53 3.747-.594 6.264-.042 1.178-.141 1.727-.616 3.333-.474 1.605-3.18 4.539-4.66 4.048-2.055-.675-1.381-6.214-.996-10.02.32-3.009-.707-4.36-3.34-4.85-1.54-.307-2.476-.26-4.081-.743-1.518-.457-1.861-3.199-5.098-2.285-1.77.5-.633 4.083-1.058 6.738-2.092 13.062-6.445 13.421-8.465 7.076C28.67 8.453 22.205.066 18.422.066c-3.941 0-8.446 2.593-6.539 19.18-.927-.258-1.212-.397-2.228-.397C3.912 18.849 0 23.282 0 28.752c0 5.469 3.913 9.903 9.655 9.903 3.39 0 5.77-1.473 7.573-3.75 1.176 1.608 2.609 3.775 5.228 3.677C30.262 38.292 32.532 23 32.8 22.146c.835.122 1.624.355 2.395.478 1.284.184 1.377.67 1.348 1.903-.34 10.401 1.67 14.043 6.229 14.043 2.54 0 4.803-2.383 6.363-4.088 1.165 2.296 3.02 4.018 5.51 4.087 6.034.144 8.344-9.04 8.134-7.832-.165.948 1.957 7.78 8.169 7.806 7.694.03 9.125-8.05 9.295-9.404.022-.27.03-.241 0 0l-.006.082c2.443-.434 3.703-1.685 3.703-1.685s1.962 11.132 9.227 11.007c7.545-.13 8.968-7.435 9.155-8.86.024-.338.039-.298 0 0l-.003.042c2.901-1.008 3.665-2.02 3.665-2.02s1.559 10.91 9.227 11.006c6.833.085 9.365-6.597 9.38-9.395 1.153.012 3.285-.653 3.235-.69 0 0 2.503 9.539 9.492 10.029 3.282.23 5.744-1.764 7.147-2.673 3.298 2.55 14.28 5.809 21.215-5.42.979-1.61-1.126-3.514-1.495-3.763zM9.378 34.951c-3.35 0-5.499-2.959-5.499-6.149s1.973-6.148 5.323-6.148c1.508 0 2.347.158 3.52 1.133.214.802.817 2.65 1.11 3.49.394 1.123.862 2.079 1.334 3.12-.674 2.669-2.884 4.554-5.788 4.554zm8.165-11.07c-.14-.212-.11-.082-.266-.282-.614-1.596-1.798-5.157-1.935-9.202-.155-4.576.644-9.94 2.998-9.94 1.595 0 3.29 10.87-.797 19.424zm47.176-4.768c-.378-2.715-.398-14.82 2.645-14.487 1.68.65-1.066 12.073-2.645 14.487zm22.22 0c-.379-2.715-.398-14.82 2.645-14.487 1.68.65-1.066 12.073-2.646 14.487zm22.043.169c-.379-2.716-.398-14.821 2.644-14.488 1.681.65-1.065 12.073-2.644 14.488zm24.335-15.365c2.782-.275 2.668 11.327-2.917 18.653-.72-2.648-1.824-17.744 2.917-18.653zm11.694 24.967c-.894-4.31 1.415-7.142 3.795-7.453.832-.126 2.038.388 2.278 1.35.396 1.814-.057 4.504-5.384 7.917.007.03-.49-.854-.689-1.814z" fill="#FCFCFC"/></svg>