<svg width="166" height="30" fill="none" xmlns="http://www.w3.org/2000/svg"><path d="M10.416 7.309c1.86 0 3.565.669 4.89 1.775l1.802-2.137a10.397 10.397 0 00-6.692-2.43C4.673 4.518 0 9.168 0 14.884 0 20.6 4.673 25.25 10.417 25.25c2.546 0 4.88-.915 6.69-2.43l-1.8-2.137a7.6 7.6 0 01-4.89 1.776c-4.197 0-7.612-3.398-7.612-7.575 0-4.176 3.415-7.575 7.612-7.574h-.001zm57.658-2.193h-5.608a1.402 1.402 0 00-1.402 1.395v16.744c0 .37.148.725.41.986.264.262.62.41.992.41h5.608c5.413 0 9.815-4.382 9.815-9.768 0-5.386-4.402-9.768-9.816-9.767h.001zm0 16.744h-4.206V7.907h4.206c3.866 0 7.01 3.13 7.01 6.977 0 3.849-3.144 6.976-7.011 6.976h.001zM85.481 6.512v16.744c0 .37.148.724.411.986.263.261.62.409.991.409h11.685v-2.79H88.286v-5.582h6.543v-2.79h-6.543V7.906h10.282v-2.79H86.883a1.405 1.405 0 00-1.294.86c-.07.17-.106.351-.106.534h-.002zm42.443 0v16.744c0 .37.148.724.411.986.263.261.619.409.991.409h11.684v-2.79h-10.282v-5.582h6.543v-2.79h-6.543V7.906h10.282v-2.79h-11.683a1.404 1.404 0 00-1.296.86c-.07.17-.107.35-.106.534h-.001zM114.58 5.116h-6.076c-.372 0-.728.147-.991.409a1.391 1.391 0 00-.411.986v18.14h2.805v-8.372h4.674c3.092 0 5.608-2.504 5.608-5.581 0-3.078-2.516-5.583-5.61-5.582h.001zm0 8.372h-4.674v-5.58h4.674a2.8 2.8 0 012.804 2.79 2.8 2.8 0 01-2.805 2.79h.001zm48.352-8.372v14.286L151.39 5.618a1.399 1.399 0 00-1.554-.419 1.394 1.394 0 00-.925 1.312v18.14h2.804V10.366l11.542 13.783a1.399 1.399 0 001.553.418 1.397 1.397 0 00.925-1.312V5.115h-2.803v.001zm-109.834 5.01c-.007-.036-.013-.072-.023-.107l-.02-.062a1.277 1.277 0 00-.033-.093c-.008-.022-.019-.042-.028-.063a1.129 1.129 0 00-.044-.084c-.011-.02-.024-.04-.037-.06a1.288 1.288 0 00-.162-.202c-.017-.016-.033-.034-.052-.05a1.06 1.06 0 00-.072-.06c-.02-.015-.038-.03-.059-.044l-.021-.016-13.67-9.07a1.288 1.288 0 00-1.426 0l-13.67 9.07c-.008.004-.015.01-.022.015l-.058.044a.998.998 0 00-.125.11 1.15 1.15 0 00-.162.204l-.037.059c-.016.028-.03.056-.043.084l-.029.062c-.012.03-.023.062-.033.093l-.02.06a1.19 1.19 0 00-.022.108c-.004.018-.009.037-.01.055a1.28 1.28 0 00-.012.167v9.072c0 .056.004.113.012.167.003.02.008.036.012.056.006.036.012.072.024.108l.02.062c.01.032.02.064.033.094.008.02.02.04.028.06.036.078.082.152.137.22.014.02.028.036.044.055.02.024.04.048.064.07.017.016.033.035.053.048l.072.06c.02.017.04.029.057.044.007.004.012.012.02.016l13.667 9.074a1.29 1.29 0 001.426 0l13.671-9.07c.008-.004.014-.01.021-.015l.059-.044.073-.06.051-.05a1.151 1.151 0 00.198-.262.86.86 0 00.045-.085 1.329 1.329 0 00.062-.155l.02-.062a.984.984 0 00.022-.108c.004-.018.009-.036.01-.055.008-.055.012-.11.012-.167v-9.07c0-.056-.004-.112-.012-.167-.003-.02-.009-.036-.013-.056h.002zM38.164 17.91l-4.546-3.026 4.546-3.026 4.546 3.026-4.546 3.026zm-1.285-8.274l-5.573 3.709-4.498-2.995 10.071-6.68v5.967zm-7.885 5.247l-3.215 2.14v-4.28l3.216 2.14zm2.312 1.54l5.573 3.71v5.966l-10.071-6.682 4.498-2.995v.001zm8.143 3.709l5.573-3.71 4.498 2.995-10.07 6.681v-5.966zm7.885-5.248l3.215-2.14v4.28l-3.215-2.14zm-2.312-1.539l-5.573-3.709V3.669l10.072 6.681-4.499 2.995z" fill="#FCFCFC"/></svg>